<svg width="297" height="271" viewBox="0 0 297 271" fill="none" xmlns="http://www.w3.org/2000/svg">
<rect width="297" height="271" fill="white"/>
<g clip-path="url(#clip0_177_319)">
<g filter="url(#filter0_biii_177_319)">
<path d="M45.3222 48.5109C66.7304 44.1067 191.954 -34.5276 218.455 28.1659C228.959 53.0145 256.157 62.3508 270.432 84.045C295.867 122.699 318.153 202.582 249.917 219.751C197.579 232.919 181.243 290.759 134.585 260.55C87.9279 230.342 65.1923 245.404 38.3164 213.343C-10.5338 155.068 -3.18861 58.4907 45.3222 48.5109Z" fill="#FD8886"/>
</g>
<g opacity="0.8" filter="url(#filter1_biii_177_319)">
<path d="M46.7923 48.3754C67.8744 43.9604 191.35 -34.0923 217.242 27.7569C227.504 52.271 254.243 61.4115 268.227 82.7982C293.142 120.904 314.835 199.746 247.628 216.911C196.081 230.076 179.829 287.26 134.002 257.56C88.1749 227.861 65.7544 242.808 39.401 211.219C-8.49931 153.802 -0.979663 58.3797 46.7923 48.3754Z" fill="white"/>
</g>
<line x1="71" y1="199.5" x2="221.585" y2="199.5" stroke="#898E95"/>
<path d="M226.605 128.351H216.989C210.002 128.351 205.728 123.501 204.96 114.696C204.58 110.354 204.348 105.099 204.104 99.5366C203.35 82.4441 202.317 59.0442 195.692 59.0442H188.077V57.2708H195.692C204.003 57.2708 204.951 78.72 205.867 99.4627C206.111 105.008 206.343 110.245 206.72 114.537C207.2 120.028 209.369 126.575 216.989 126.575H226.605V128.351Z" fill="#898E95"/>
<path opacity="0.25" d="M193.67 57.265L193.293 59.0382H188.077V57.265H193.67Z" fill="#EBF3FD"/>
<path d="M173.726 47.5378H170.647V69.1407H173.726V47.5378Z" fill="#D55D5A"/>
<path d="M170.65 49.1339H158.945V67.3229H170.65V49.1339Z" fill="#D55D5A"/>
<path opacity="0.25" d="M170.647 49.1368V67.3259H167.739L166.436 49.1368H170.647Z" fill="#EBF3FD"/>
<path d="M149.962 52.3999H158.942V55.119H149.962C149.654 55.119 149.36 54.9963 149.142 54.7779C148.925 54.5595 148.802 54.2634 148.802 53.9545V53.5674C148.802 53.4142 148.832 53.2624 148.89 53.1208C148.948 52.9792 149.033 52.8505 149.141 52.742C149.249 52.6336 149.377 52.5476 149.518 52.4889C149.658 52.4301 149.809 52.3999 149.962 52.3999Z" fill="#898E95"/>
<path d="M158.942 52.3999H155.79V55.116H158.942V52.3999Z" fill="#A8B8CC"/>
<path d="M149.962 61.3407H158.942V64.0597H149.962C149.654 64.0597 149.36 63.937 149.142 63.7186C148.925 63.5003 148.802 63.2041 148.802 62.8953V62.5081C148.802 62.3549 148.832 62.2032 148.89 62.0616C148.948 61.92 149.033 61.7912 149.141 61.6828C149.249 61.5744 149.377 61.4883 149.518 61.4296C149.658 61.3709 149.809 61.3407 149.962 61.3407Z" fill="#898E95"/>
<path d="M158.942 61.3407H155.79V64.0568H158.942V61.3407Z" fill="#A8B8CC"/>
<path d="M191.918 56.4935H182.774V60.1198H191.918V56.4935Z" fill="#D55D5A"/>
<path d="M191.918 56.4964H182.774V60.1227H191.918V56.4964Z" fill="#D55D5A"/>
<path opacity="0.25" d="M185.985 56.4964L185.684 60.1227H182.774V56.4964H185.985Z" fill="#EBF3FD"/>
<path d="M173.726 49.8196H180.964C181.444 49.8196 181.904 50.0111 182.244 50.352C182.583 50.6929 182.774 51.1552 182.774 51.6373V64.8225C182.774 65.3046 182.583 65.7669 182.244 66.1078C181.904 66.4487 181.444 66.6402 180.964 66.6402H173.726V49.8196Z" fill="#D55D5A"/>
<path opacity="0.25" d="M177.576 49.8196L176.272 66.6402H173.729V49.8196H177.576Z" fill="#EBF3FD"/>
<g opacity="0.2">
<path opacity="0.2" d="M176.902 53.2187H176.325V63.2383H176.902V53.2187Z" fill="#232E3C"/>
<path opacity="0.2" d="M178.538 53.2187H177.961V63.2383H178.538V53.2187Z" fill="#232E3C"/>
<path opacity="0.2" d="M180.175 53.2187H179.598V63.2383H180.175V53.2187Z" fill="#232E3C"/>
</g>
<path d="M128.284 57.3786C129.03 57.358 132.443 56.9633 133.37 56.6394C134.297 56.3154 136.88 55.1904 136.716 54.4512C136.552 53.712 135.757 53.98 135.757 53.98C135.757 53.98 136.777 53.3292 136.535 52.6017C136.292 51.8743 135.072 52.3337 135.072 52.3337C135.072 52.3337 136.073 51.5886 135.777 50.8789C135.482 50.1691 134.344 50.8376 134.344 50.8376C134.344 50.8376 135.292 50.1986 134.806 49.7156C134.221 49.1266 132.607 50.5137 131.56 50.7935C131.32 50.8583 126.641 51.7388 126.641 51.7388L128.284 57.3786Z" fill="#A01408"/>
<path d="M134.464 50.7817C133.274 51.7889 132.581 52.0245 131.066 52.2336C131.06 52.2354 131.056 52.2387 131.053 52.2432C131.05 52.2477 131.048 52.2531 131.048 52.2586C131.048 52.2641 131.05 52.2695 131.053 52.2739C131.056 52.2784 131.06 52.2818 131.066 52.2836C132.566 52.2129 133.478 52.0451 134.514 50.8377C134.558 50.7788 134.511 50.7346 134.464 50.7817Z" fill="#3C4F68"/>
<path d="M135.175 52.2513C133.85 53.2054 133.101 53.4498 131.539 53.7944C131.519 53.7944 131.525 53.8386 131.539 53.8356C133.107 53.6324 134.014 53.4439 135.216 52.3308C135.265 52.2748 135.236 52.2071 135.175 52.2513Z" fill="#3C4F68"/>
<path d="M135.675 53.9947C134.327 54.8104 133.517 55.1314 131.949 55.264C131.941 55.264 131.934 55.2671 131.928 55.2726C131.923 55.2781 131.92 55.2856 131.92 55.2934C131.92 55.3012 131.923 55.3087 131.928 55.3142C131.934 55.3197 131.941 55.3229 131.949 55.3229C133.316 55.4058 134.66 54.9446 135.692 54.0389C135.771 53.977 135.76 53.9446 135.675 53.9947Z" fill="#3C4F68"/>
<path d="M125.559 51.1201C126.346 50.6076 127.17 50.1538 128.024 49.7626C128.849 49.4681 132.329 49.4681 132.367 50.2278C132.42 51.2055 130.411 51.5972 129.402 51.662C129.402 51.662 129.527 53.9207 128.144 54.5185C126.761 55.1163 125.559 51.1201 125.559 51.1201Z" fill="#A01408"/>
<path d="M132.297 50.5018C131.712 51.4265 130.376 51.4236 129.402 51.559C129.387 51.5598 129.373 51.5643 129.36 51.5721C129.348 51.5799 129.337 51.5907 129.33 51.6036C129.323 51.6165 129.319 51.6311 129.318 51.646C129.318 51.6608 129.322 51.6755 129.329 51.6886C129.329 52.6398 129.036 53.9768 128.203 54.5392C128.176 54.5569 128.203 54.5952 128.223 54.5805C129.191 54.0975 129.583 52.8135 129.527 51.7622C130.528 51.6415 131.867 51.5855 132.306 50.5048C132.309 50.4989 132.3 50.4959 132.297 50.5018Z" fill="#3C4F68"/>
<path d="M121.303 49.745C121.111 50.3134 120.952 50.8926 120.827 51.4796C120.683 52.0686 120.534 52.6576 120.414 53.2466C120.154 54.4018 119.959 55.5709 119.829 56.7483C119.829 56.7553 119.832 56.7621 119.837 56.767C119.842 56.772 119.849 56.7748 119.856 56.7748C119.863 56.7748 119.869 56.772 119.874 56.767C119.879 56.7621 119.882 56.7553 119.882 56.7483C120.198 55.5938 120.432 54.4129 120.672 53.2407C120.792 52.6517 120.9 52.0804 121.02 51.5032C121.14 50.9259 121.283 50.3251 121.347 49.7538C121.348 49.748 121.347 49.7419 121.344 49.7369C121.341 49.7319 121.336 49.7285 121.33 49.7273C121.324 49.7261 121.318 49.7273 121.313 49.7306C121.308 49.734 121.305 49.7391 121.303 49.745Z" fill="#3C4F68"/>
<path d="M80.5547 127.515H71V125.748H80.5547C88.1236 125.748 90.282 119.224 90.7587 113.753C91.133 109.468 91.3612 104.249 91.6039 98.7328C92.5135 78.0645 93.4552 56.6924 101.714 56.6924H109.283V58.4594H101.708C95.1281 58.4594 94.1045 81.7812 93.3528 98.8065C93.1072 104.352 92.8761 109.588 92.5018 113.915C91.7414 122.682 87.4977 127.515 80.5547 127.515Z" fill="#898E95"/>
<path opacity="0.2" d="M109.283 56.6835V58.4504H103.247L102.872 56.6835H109.283Z" fill="#232E3C"/>
<path d="M135.54 68.9821H138.763V46.3112H135.54V68.9821Z" fill="#D55D5A"/>
<path d="M135.54 47.3861H123.292V67.6715H135.54V47.3861Z" fill="#D55D5A"/>
<path opacity="0.25" d="M135.54 47.3861V67.6715H132.499L131.133 47.3861H135.54Z" fill="#D8DEE4"/>
<path d="M104.738 59.3723H113.825V55.7589H104.738V59.3723Z" fill="#D55D5A"/>
<path d="M113.825 55.7618H104.738V59.3751H113.825V55.7618Z" fill="#D55D5A"/>
<path opacity="0.25" d="M110.634 59.3722L110.933 55.7618H113.825V59.3722H110.634Z" fill="#D8DEE4"/>
<path d="M123.292 66.4699H115.624C115.147 66.4699 114.689 66.2791 114.352 65.9394C114.015 65.5998 113.825 65.1391 113.825 64.6587V50.6286C113.825 50.1482 114.015 49.6875 114.352 49.3478C114.689 49.0082 115.147 48.8174 115.624 48.8174H123.292V66.4699Z" fill="#D55D5A"/>
<path opacity="0.25" d="M119.262 66.4699L120.628 48.8203H123.292V66.4699H119.262Z" fill="#D8DEE4"/>
<g opacity="0.2">
<path opacity="0.2" d="M119.967 62.9005H120.572V52.3867H119.967V62.9005Z" fill="#232E3C"/>
<path opacity="0.2" d="M118.256 62.9005H118.862V52.3867H118.256V62.9005Z" fill="#232E3C"/>
<path opacity="0.2" d="M116.542 62.9005H117.148V52.3867H116.542V62.9005Z" fill="#232E3C"/>
</g>
<g filter="url(#filter2_d_177_319)">
<path d="M156.5 151.719C145 151.721 122 151.718 122 151.718V166.812C122 170.405 124.273 176.551 127.75 181.187C129.906 184.062 132.983 187.607 137.094 190.53C142.991 194.724 150.789 196.999 152.906 196.999H164.406L145 167.53H156.5C160.094 167.53 164.406 165.374 164.406 159.983C164.406 154.593 160.094 151.719 156.5 151.719Z" fill="white"/>
<path d="M165.125 176.875L178.781 197L164.406 196.999L145 167.53H156.5C160.094 167.53 164.406 165.374 164.406 159.983C164.406 154.592 160.094 151.718 156.5 151.719C145 151.72 122 151.717 122 151.717V139.5H156.5C162.969 139.5 168.558 142.087 172.312 146.688C174.659 149.562 176.425 153.875 176.625 157.469C177.424 171.844 165.125 176.875 165.125 176.875Z" fill="#0BCEB2"/>
<path fill-rule="evenodd" clip-rule="evenodd" d="M161.849 154.096C163.122 154.036 164.36 153.467 164.778 152.369C164.82 152.26 164.837 152.143 164.828 152.027C164.819 151.911 164.784 151.799 164.727 151.698C164.669 151.597 164.59 151.51 164.494 151.443C164.399 151.376 164.29 151.332 164.175 151.312C161.168 150.803 158.735 148.638 157.63 144.904C157.593 144.778 157.524 144.662 157.43 144.569C157.336 144.476 157.22 144.409 157.093 144.372C156.966 144.336 156.832 144.332 156.703 144.361C156.574 144.39 156.455 144.451 156.356 144.539C155.499 145.293 155.051 146.723 155.137 148.159C155.189 149.007 155.421 149.834 155.819 150.586C156.216 151.337 156.77 151.994 157.442 152.514C158.934 153.697 160.517 154.157 161.849 154.096Z" fill="#2D4356"/>
<path d="M123.577 152.369C123.995 153.467 125.232 154.037 126.508 154.096C127.839 154.156 129.421 153.697 130.913 152.514C131.585 151.994 132.139 151.337 132.536 150.586C132.934 149.834 133.166 149.007 133.218 148.159C133.304 146.723 132.856 145.293 131.999 144.539C131.9 144.451 131.781 144.39 131.652 144.361C131.523 144.332 131.389 144.336 131.262 144.372C131.135 144.409 131.019 144.476 130.925 144.569C130.831 144.662 130.763 144.778 130.725 144.904C129.62 148.638 127.187 150.803 124.18 151.312C124.065 151.332 123.956 151.376 123.861 151.443C123.765 151.51 123.686 151.597 123.628 151.698C123.571 151.799 123.536 151.911 123.527 152.027C123.518 152.143 123.535 152.26 123.577 152.369Z" fill="#2D4356"/>
<g filter="url(#filter3_i_177_319)">
<path d="M166 155.64C166 156.808 166.966 157.751 168.156 157.751C169.347 157.751 170.312 156.808 170.312 155.64C170.312 154.741 169.032 152.927 168.444 152.145C168.3 151.952 168.013 151.952 167.869 152.145C167.28 152.927 166 154.741 166 155.64Z" fill="#BFDCF4" fill-opacity="0.5"/>
</g>
<g filter="url(#filter4_d_177_319)">
<path d="M153.243 166.504C148.69 166.504 145 162.809 145 158.252C145 153.694 148.69 150 153.243 150C157.795 150 161.485 153.694 161.485 158.252C161.485 162.809 157.795 166.504 153.243 166.504Z" fill="#F7F7F7"/>
</g>
<g filter="url(#filter5_d_177_319)">
<path d="M135.243 166.504C130.69 166.504 127 162.809 127 158.252C127 153.694 130.69 150 135.243 150C139.795 150 143.485 153.694 143.485 158.252C143.485 162.809 139.795 166.504 135.243 166.504Z" fill="#F7F7F7"/>
</g>
<path d="M152.179 161.18C150.564 161.18 149.254 160.107 149.254 158.784C149.254 157.461 150.564 156.389 152.179 156.389C153.795 156.389 155.104 157.461 155.104 158.784C155.104 160.107 153.795 161.18 152.179 161.18Z" fill="#3F3D56"/>
<path d="M134.179 161.18C132.564 161.18 131.254 160.107 131.254 158.784C131.254 157.461 132.564 156.389 134.179 156.389C135.795 156.389 137.104 157.461 137.104 158.784C137.104 160.107 135.795 161.18 134.179 161.18Z" fill="#3F3D56"/>
<path d="M123.808 156.258C123.808 156.258 123.668 155.154 124.356 154.799C124.356 154.799 121.443 161.669 120 166C119 169 118.5 171.143 120.5 173C123.731 176 120.5 169.5 120.5 168.5C121.498 164.523 122.897 157.766 124.5 155.5C124.393 155.862 124.08 155.609 123.939 155.959C123.846 156.149 123.808 156.258 123.808 156.258Z" fill="#0BCEB2"/>
<path d="M123.808 156.258C123.808 156.258 123.668 155.154 124.356 154.799C124.356 154.799 121.443 161.669 120 166C119 169 118.5 171.143 120.5 173C123.731 176 120.5 169.5 120.5 168.5C121.498 164.523 122.897 157.766 124.5 155.5C124.393 155.862 124.08 155.609 123.939 155.959C123.846 156.149 123.808 156.258 123.808 156.258Z" fill="black" fill-opacity="0.2"/>
<path d="M133.017 153.775C129.566 152.022 125.241 154.344 124.356 154.799M123.808 156.258C123.808 156.258 129.823 149.159 129.492 144.799M123.808 156.258C123.808 156.258 123.668 155.154 124.356 154.799M123.808 156.258C123.808 156.258 123.846 156.149 123.939 155.959M123.808 156.258C123.808 156.258 123.862 156.152 123.939 155.959M133.531 148.048C131.319 148.571 124.361 155.1 123.939 155.959M125.72 146.626C128.747 150.182 123.5 152.5 123.939 155.959M124.5 155.5C124.774 155.881 127.318 153.571 127.318 153.571L124.356 154.799M124.5 155.5C124.393 155.862 124.08 155.609 123.939 155.959M124.5 155.5C122.897 157.766 121.498 164.523 120.5 168.5C120.5 169.5 123.731 176 120.5 173C118.5 171.143 119 169 120 166C121.443 161.669 124.356 154.799 124.356 154.799" stroke="#0BCEB2" stroke-width="2.875" stroke-linecap="round"/>
<path d="M133.017 153.775C129.566 152.022 125.241 154.344 124.356 154.799M123.808 156.258C123.808 156.258 129.823 149.159 129.492 144.799M123.808 156.258C123.808 156.258 123.668 155.154 124.356 154.799M123.808 156.258C123.808 156.258 123.846 156.149 123.939 155.959M123.808 156.258C123.808 156.258 123.862 156.152 123.939 155.959M133.531 148.048C131.319 148.571 124.361 155.1 123.939 155.959M125.72 146.626C128.747 150.182 123.5 152.5 123.939 155.959M124.5 155.5C124.774 155.881 127.318 153.571 127.318 153.571L124.356 154.799M124.5 155.5C124.393 155.862 124.08 155.609 123.939 155.959M124.5 155.5C122.897 157.766 121.498 164.523 120.5 168.5C120.5 169.5 123.731 176 120.5 173C118.5 171.143 119 169 120 166C121.443 161.669 124.356 154.799 124.356 154.799" stroke="black" stroke-opacity="0.2" stroke-width="2.875" stroke-linecap="round"/>
</g>
</g>
<defs>
<filter id="filter0_biii_177_319" x="-314.196" y="-315.298" width="928.808" height="903.778" filterUnits="userSpaceOnUse" color-interpolation-filters="sRGB">
<feFlood flood-opacity="0" result="BackgroundImageFix"/>
<feGaussianBlur in="BackgroundImageFix" stdDeviation="159.654"/>
<feComposite in2="SourceAlpha" operator="in" result="effect1_backgroundBlur_177_319"/>
<feBlend mode="normal" in="SourceGraphic" in2="effect1_backgroundBlur_177_319" result="shape"/>
<feColorMatrix in="SourceAlpha" type="matrix" values="0 0 0 0 0 0 0 0 0 0 0 0 0 0 0 0 0 0 127 0" result="hardAlpha"/>
<feOffset dx="3.19308" dy="12.7723"/>
<feGaussianBlur stdDeviation="6.38615"/>
<feComposite in2="hardAlpha" operator="arithmetic" k2="-1" k3="1"/>
<feColorMatrix type="matrix" values="0 0 0 0 1 0 0 0 0 1 0 0 0 0 1 0 0 0 1 0"/>
<feBlend mode="normal" in2="shape" result="effect2_innerShadow_177_319"/>
<feColorMatrix in="SourceAlpha" type="matrix" values="0 0 0 0 0 0 0 0 0 0 0 0 0 0 0 0 0 0 127 0" result="hardAlpha"/>
<feOffset dx="-3.19308" dy="-12.7723"/>
<feGaussianBlur stdDeviation="6.38615"/>
<feComposite in2="hardAlpha" operator="arithmetic" k2="-1" k3="1"/>
<feColorMatrix type="matrix" values="0 0 0 0 0 0 0 0 0 0 0 0 0 0 0 0 0 0 0.06 0"/>
<feBlend mode="normal" in2="effect2_innerShadow_177_319" result="effect3_innerShadow_177_319"/>
<feColorMatrix in="SourceAlpha" type="matrix" values="0 0 0 0 0 0 0 0 0 0 0 0 0 0 0 0 0 0 127 0" result="hardAlpha"/>
<feOffset dy="3.19308"/>
<feGaussianBlur stdDeviation="3.19308"/>
<feComposite in2="hardAlpha" operator="arithmetic" k2="-1" k3="1"/>
<feColorMatrix type="matrix" values="0 0 0 0 0 0 0 0 0 0 0 0 0 0 0 0 0 0 0.04 0"/>
<feBlend mode="normal" in2="effect3_innerShadow_177_319" result="effect4_innerShadow_177_319"/>
</filter>
<filter id="filter1_biii_177_319" x="-312.305" y="-315.287" width="924.087" height="900.597" filterUnits="userSpaceOnUse" color-interpolation-filters="sRGB">
<feFlood flood-opacity="0" result="BackgroundImageFix"/>
<feGaussianBlur in="BackgroundImageFix" stdDeviation="159.654"/>
<feComposite in2="SourceAlpha" operator="in" result="effect1_backgroundBlur_177_319"/>
<feBlend mode="normal" in="SourceGraphic" in2="effect1_backgroundBlur_177_319" result="shape"/>
<feColorMatrix in="SourceAlpha" type="matrix" values="0 0 0 0 0 0 0 0 0 0 0 0 0 0 0 0 0 0 127 0" result="hardAlpha"/>
<feOffset dx="3.19308" dy="12.7723"/>
<feGaussianBlur stdDeviation="6.38615"/>
<feComposite in2="hardAlpha" operator="arithmetic" k2="-1" k3="1"/>
<feColorMatrix type="matrix" values="0 0 0 0 1 0 0 0 0 1 0 0 0 0 1 0 0 0 1 0"/>
<feBlend mode="normal" in2="shape" result="effect2_innerShadow_177_319"/>
<feColorMatrix in="SourceAlpha" type="matrix" values="0 0 0 0 0 0 0 0 0 0 0 0 0 0 0 0 0 0 127 0" result="hardAlpha"/>
<feOffset dx="-3.19308" dy="-12.7723"/>
<feGaussianBlur stdDeviation="6.38615"/>
<feComposite in2="hardAlpha" operator="arithmetic" k2="-1" k3="1"/>
<feColorMatrix type="matrix" values="0 0 0 0 0 0 0 0 0 0 0 0 0 0 0 0 0 0 0.06 0"/>
<feBlend mode="normal" in2="effect2_innerShadow_177_319" result="effect3_innerShadow_177_319"/>
<feColorMatrix in="SourceAlpha" type="matrix" values="0 0 0 0 0 0 0 0 0 0 0 0 0 0 0 0 0 0 127 0" result="hardAlpha"/>
<feOffset dy="3.19308"/>
<feGaussianBlur stdDeviation="3.19308"/>
<feComposite in2="hardAlpha" operator="arithmetic" k2="-1" k3="1"/>
<feColorMatrix type="matrix" values="0 0 0 0 0 0 0 0 0 0 0 0 0 0 0 0 0 0 0.04 0"/>
<feBlend mode="normal" in2="effect3_innerShadow_177_319" result="effect4_innerShadow_177_319"/>
</filter>
<filter id="filter2_d_177_319" x="113.688" y="126" width="81.3125" height="77" filterUnits="userSpaceOnUse" color-interpolation-filters="sRGB">
<feFlood flood-opacity="0" result="BackgroundImageFix"/>
<feColorMatrix in="SourceAlpha" type="matrix" values="0 0 0 0 0 0 0 0 0 0 0 0 0 0 0 0 0 0 127 0" result="hardAlpha"/>
<feOffset dy="2"/>
<feGaussianBlur stdDeviation="2"/>
<feComposite in2="hardAlpha" operator="out"/>
<feColorMatrix type="matrix" values="0 0 0 0 0 0 0 0 0 0 0 0 0 0 0 0 0 0 0.15 0"/>
<feBlend mode="normal" in2="BackgroundImageFix" result="effect1_dropShadow_177_319"/>
<feBlend mode="normal" in="SourceGraphic" in2="effect1_dropShadow_177_319" result="shape"/>
</filter>
<filter id="filter3_i_177_319" x="166" y="152" width="4.3125" height="9.75113" filterUnits="userSpaceOnUse" color-interpolation-filters="sRGB">
<feFlood flood-opacity="0" result="BackgroundImageFix"/>
<feBlend mode="normal" in="SourceGraphic" in2="BackgroundImageFix" result="shape"/>
<feColorMatrix in="SourceAlpha" type="matrix" values="0 0 0 0 0 0 0 0 0 0 0 0 0 0 0 0 0 0 127 0" result="hardAlpha"/>
<feOffset dy="4"/>
<feGaussianBlur stdDeviation="10"/>
<feComposite in2="hardAlpha" operator="arithmetic" k2="-1" k3="1"/>
<feColorMatrix type="matrix" values="0 0 0 0 0 0 0 0 0 0 0 0 0 0 0 0 0 0 0.25 0"/>
<feBlend mode="normal" in2="shape" result="effect1_innerShadow_177_319"/>
</filter>
<filter id="filter4_d_177_319" x="137" y="144" width="32.4854" height="32.5036" filterUnits="userSpaceOnUse" color-interpolation-filters="sRGB">
<feFlood flood-opacity="0" result="BackgroundImageFix"/>
<feColorMatrix in="SourceAlpha" type="matrix" values="0 0 0 0 0 0 0 0 0 0 0 0 0 0 0 0 0 0 127 0" result="hardAlpha"/>
<feOffset dy="2"/>
<feGaussianBlur stdDeviation="4"/>
<feComposite in2="hardAlpha" operator="out"/>
<feColorMatrix type="matrix" values="0 0 0 0 0 0 0 0 0 0 0 0 0 0 0 0 0 0 0.15 0"/>
<feBlend mode="normal" in2="BackgroundImageFix" result="effect1_dropShadow_177_319"/>
<feBlend mode="normal" in="SourceGraphic" in2="effect1_dropShadow_177_319" result="shape"/>
</filter>
<filter id="filter5_d_177_319" x="119" y="144" width="32.4854" height="32.5036" filterUnits="userSpaceOnUse" color-interpolation-filters="sRGB">
<feFlood flood-opacity="0" result="BackgroundImageFix"/>
<feColorMatrix in="SourceAlpha" type="matrix" values="0 0 0 0 0 0 0 0 0 0 0 0 0 0 0 0 0 0 127 0" result="hardAlpha"/>
<feOffset dy="2"/>
<feGaussianBlur stdDeviation="4"/>
<feComposite in2="hardAlpha" operator="out"/>
<feColorMatrix type="matrix" values="0 0 0 0 0 0 0 0 0 0 0 0 0 0 0 0 0 0 0.15 0"/>
<feBlend mode="normal" in2="BackgroundImageFix" result="effect1_dropShadow_177_319"/>
<feBlend mode="normal" in="SourceGraphic" in2="effect1_dropShadow_177_319" result="shape"/>
</filter>
<clipPath id="clip0_177_319">
<rect width="297" height="271" fill="white"/>
</clipPath>
</defs>
</svg>
